<svg xmlns="http://www.w3.org/2000/svg" width="40" height="40" viewBox="0 0 40 40" fill="none">
  <circle cx="20" cy="20" r="18" fill="#3B82F6" />
  <path d="M20 10C17.2386 10 15 12.2386 15 15C15 17.7614 17.2386 20 20 20C22.7614 20 25 17.7614 25 15C25 12.2386 22.7614 10 20 10ZM13 29C13 25.134 16.134 22 20 22C23.866 22 27 25.134 27 29M32 20C32 26.6274 26.6274 32 20 32C13.3726 32 8 26.6274 8 20C8 13.3726 13.3726 8 20 8C26.6274 8 32 13.3726 32 20Z" stroke="white" strokeWidth="2" strokeLinecap="round" strokeLinejoin="round"/>
</svg> 